<?xml version="1.0" encoding="utf-8"?>
<!-- Generator: Adobe Illustrator 27.5.0, SVG Export Plug-In . SVG Version: 6.00 Build 0)  -->
<svg version="1.1" xmlns="http://www.w3.org/2000/svg" xmlns:xlink="http://www.w3.org/1999/xlink" x="0px" y="0px"
	 viewBox="0 0 500 500" style="enable-background:new 0 0 500 500;" xml:space="preserve">
<g id="BACKGROUND">
	<rect style="fill:#FFFFFF;" width="500" height="500"/>
</g>
<g id="OBJECTS">
	<g>
		<ellipse style="opacity:0.1;fill:#204E5F;" cx="96.858" cy="416.132" rx="39.973" ry="7.218"/>
		<g style="opacity:0.3;">
			<rect x="337.904" y="40.46" style="fill:#529496;" width="93.594" height="130.105"/>
			<rect x="340.822" y="43.249" style="fill:#D3E3E8;" width="87.757" height="124.527"/>
			<polygon style="fill:#B7D7D8;" points="428.58,43.249 340.822,167.777 428.58,167.777 			"/>
			<g>
				<path style="fill:#2F6263;" d="M405.586,130.398c-2.35,0-4.396-0.5-6.138-1.499c-1.742-0.999-3.127-2.35-4.153-4.051
					c-1.35,1.701-3.012,3.053-4.983,4.051c-1.972,0.999-4.106,1.499-6.401,1.499h-2.472c-1.972,0-3.829-0.371-5.571-1.114
					c-1.742-0.742-3.261-1.762-4.558-3.059c-1.297-1.297-2.317-2.81-3.059-4.538c-0.743-1.728-1.115-3.579-1.115-5.551v-3.16
					c0-1.377,0.183-2.694,0.548-3.95c0.365-1.256,0.885-2.424,1.559-3.505c0.675-1.08,1.472-2.06,2.391-2.938
					c0.918-0.877,1.944-1.613,3.079-2.208c-1.134-0.594-2.161-1.33-3.079-2.208c-0.919-0.877-1.716-1.856-2.391-2.938
					c-0.675-1.08-1.195-2.248-1.559-3.505c-0.365-1.256-0.548-2.573-0.548-3.95v-2.836c0-1.971,0.371-3.821,1.115-5.55
					c0.742-1.728,1.763-3.241,3.059-4.538c1.297-1.297,2.816-2.316,4.558-3.059c1.742-0.743,3.598-1.114,5.571-1.114h2.472
					c1.971,0,3.821,0.371,5.55,1.114c1.728,0.743,3.241,1.762,4.538,3.059c1.297,1.297,2.316,2.809,3.059,4.538
					c0.742,1.729,1.115,3.579,1.115,5.55v0.406l-5.227,0.851v-1.257c0-1.297-0.243-2.505-0.729-3.626
					c-0.486-1.12-1.149-2.1-1.985-2.937c-0.838-0.837-1.817-1.5-2.938-1.985c-1.121-0.486-2.33-0.729-3.626-0.729h-1.985
					c-1.297,0-2.506,0.243-3.626,0.729c-1.121,0.485-2.107,1.148-2.958,1.985c-0.851,0.837-1.519,1.816-2.006,2.937
					c-0.485,1.121-0.729,2.33-0.729,3.626v3.647c0,1.297,0.243,2.506,0.729,3.626c0.486,1.121,1.155,2.107,2.006,2.958
					c0.851,0.85,1.837,1.519,2.958,2.006c1.12,0.485,2.33,0.729,3.626,0.729h11.263v-5.307l5.227-0.851v6.078h8.063v4.943h-8.063
					v13.978c0.054,1.216,0.242,2.35,0.567,3.404c0.324,1.053,0.803,1.979,1.438,2.775c0.635,0.797,1.425,1.418,2.37,1.864
					c0.945,0.446,2.039,0.668,3.282,0.668h1.216l-0.73,4.943H405.586z M387.192,124.766c1.107-0.458,2.073-1.093,2.897-1.904
					c0.823-0.81,1.492-1.756,2.006-2.836c0.512-1.08,0.796-2.242,0.85-3.484v-13.654h-11.263c-1.297,0-2.506,0.243-3.626,0.729
					c-1.121,0.486-2.107,1.149-2.958,1.985c-0.851,0.838-1.519,1.817-2.006,2.938c-0.485,1.121-0.729,2.33-0.729,3.626v3.971
					c0,1.297,0.243,2.506,0.729,3.626c0.486,1.121,1.155,2.107,2.006,2.958c0.851,0.851,1.837,1.519,2.958,2.006
					c1.12,0.485,2.33,0.729,3.626,0.729h1.985C384.909,125.455,386.084,125.226,387.192,124.766z"/>
			</g>
		</g>
		<g style="opacity:0.3;">
			<rect x="240.127" y="40.46" style="fill:#529496;" width="62.428" height="62.428"/>
			<rect x="243.274" y="43.607" style="fill:#D3E3E8;" width="56.135" height="56.135"/>
			<polygon style="fill:#B7D7D8;" points="299.409,43.607 243.274,99.742 299.409,99.742 			"/>
		</g>
		<g style="opacity:0.3;">
			<rect x="166.309" y="40.46" style="fill:#529496;" width="62.428" height="62.428"/>
			<rect x="169.455" y="43.607" style="fill:#D3E3E8;" width="56.135" height="56.135"/>
			<polygon style="fill:#B7D7D8;" points="225.591,43.607 169.455,99.742 225.591,99.742 			"/>
		</g>
		<g style="opacity:0.3;">
			<rect x="66.204" y="102.888" style="fill:#529496;" width="94.225" height="53.468"/>
			<g>
				<rect x="70.123" y="105.79" style="fill:#D3E3E8;" width="86.386" height="47.665"/>
				<polygon style="fill:#B7D7D8;" points="156.509,105.79 70.123,153.454 156.509,153.454 				"/>
			</g>
		</g>
		<g>
			<polygon style="fill:#F2726D;" points="413.106,409.751 411.658,409.751 410.577,320.005 414.599,320.005 			"/>
			<g>
				<g>
					<g>
						<path style="fill:#3D797A;" d="M404.527,233.222c0,0-7.908-30.578-33.126-43.34c0,0,6.999,9.461,7.453,28.824
							c0.454,19.363,4.075,49.516,28.018,58.093C406.871,276.799,412.775,252.098,404.527,233.222z"/>
						<path style="fill:#D0F2F2;" d="M405.424,301.603c1.17-3.934,1.812-8.164,2.039-12.339c0.224-4.193-0.022-8.417-0.818-12.535
							c-0.398-2.058-0.935-4.088-1.618-6.065c-0.677-1.974-1.532-3.898-2.427-5.805c-1.785-3.815-3.917-7.44-6.062-11.09
							c-2.144-3.639-4.117-7.5-5.173-11.674c-1.073-4.161-1.406-8.465-1.411-12.729c0.205-8.485-2.539-16.977-7.441-23.824
							c5.016,6.754,7.931,15.249,7.868,23.819c0.075,4.24,0.479,8.494,1.6,12.557c1.106,4.076,3.089,7.803,5.285,11.394
							c2.195,3.596,4.416,7.228,6.287,11.058c0.935,1.91,1.837,3.849,2.573,5.879c0.737,2.022,1.325,4.101,1.77,6.211
							c0.89,4.222,1.215,8.56,1.058,12.872c-0.17,4.324-0.727,8.586-1.908,12.82c-0.13,0.467-0.604,0.737-1.057,0.603
							c-0.454-0.134-0.716-0.622-0.586-1.089c0.001-0.004,0.002-0.007,0.003-0.01L405.424,301.603z"/>
					</g>
					<g>
						<path style="fill:#3D797A;" d="M428.888,238.844c0,0,12.124-29.077,38.872-37.945c0,0-8.256,8.318-11.428,27.409
							c-3.172,19.091-10.996,48.387-35.892,53.304C420.44,281.612,418.072,256.292,428.888,238.844z"/>
						<path style="fill:#D0F2F2;" d="M418.383,306.37c-0.604-4.067-0.645-8.348-0.282-12.513c0.368-4.182,1.205-8.326,2.572-12.281
							c0.683-1.977,1.5-3.905,2.454-5.759c0.948-1.852,2.064-3.629,3.217-5.382c2.303-3.509,4.922-6.777,7.557-10.07
							c2.633-3.281,5.128-6.807,6.76-10.78c1.647-3.958,2.581-8.166,3.186-12.384c0.99-8.426,4.9-16.419,10.713-22.463
							c-5.913,5.935-9.992,13.907-11.135,22.395c-0.671,4.184-1.669,8.333-3.349,12.186c-1.668,3.868-4.154,7.261-6.832,10.486
							c-2.678,3.231-5.386,6.493-7.776,10.004c-1.194,1.75-2.359,3.535-3.373,5.433c-1.014,1.891-1.888,3.86-2.625,5.882
							c-1.475,4.045-2.406,8.289-2.857,12.579c-0.44,4.303-0.488,8.604,0.085,12.97c0.063,0.482,0.494,0.819,0.962,0.754
							c0.468-0.065,0.796-0.508,0.733-0.99c0-0.004-0.001-0.007-0.001-0.011L418.383,306.37z"/>
					</g>
					<g>
						<path style="fill:#66AEB0;" d="M412.22,278.775c0,0-17.952-20.463-4.061-47.307c13.892-26.844,17.952-37.211,17.738-43.799
							c0,0,16.666,19.156,12.928,49.08C435.088,266.673,422.906,273.714,412.22,278.775z"/>
						<path style="fill:#D0F2F2;" d="M411.439,301.945c-0.404-9.066,0.133-18.06,1.298-26.993
							c1.224-8.913,3.187-17.741,6.185-26.204l2.414-6.267l1.209-3.112c0.395-1.04,0.717-2.108,1.08-3.161
							c0.75-2.099,1.3-4.263,1.919-6.406c0.282-1.079,0.517-2.171,0.778-3.256c0.273-1.083,0.486-2.179,0.685-3.279
							c0.847-4.386,1.41-8.838,1.603-13.312c0.075-2.237,0.118-4.478,0.011-6.716c-0.091-2.237-0.27-4.476-0.656-6.682
							c0.421,2.2,0.636,4.439,0.763,6.677c0.143,2.24,0.135,4.485,0.095,6.73c-0.122,4.489-0.616,8.965-1.396,13.385
							c-0.182,1.108-0.379,2.213-0.635,3.306c-0.245,1.095-0.464,2.197-0.73,3.287c-0.588,2.164-1.107,4.351-1.827,6.475
							c-0.348,1.065-0.655,2.146-1.036,3.2l-1.167,3.153l-2.303,6.277c-2.839,8.44-4.646,17.224-5.718,26.078
							c-1.016,8.852-1.4,17.842-0.865,26.688l0.002,0.039c0.029,0.485-0.329,0.903-0.8,0.933c-0.471,0.03-0.877-0.339-0.906-0.824
							C411.44,301.957,411.439,301.949,411.439,301.945z"/>
					</g>
				</g>
				<path style="fill:#2D5C6E;" d="M433.639,290.214h-42.102v26.404c0,9.965,7.846,18.042,17.525,18.042h7.053
					c9.679,0,17.525-8.078,17.525-18.042V290.214z"/>
				<path style="fill:#204E5F;" d="M433.639,290.214c0,0-6.946,27.284-42.102,26.404c0.214,11.662,7.846,18.042,17.525,18.042h7.053
					c9.679,0,17.525-8.078,17.525-18.042V290.214z"/>
				<rect x="389.958" y="317.938" style="fill:#F2726D;" width="45.26" height="4.841"/>
			</g>
			<g>
				<path style="fill:#F2726D;" d="M397.209,321.531l-15.69,87.59h1.727l17.667-87.59
					C400.913,321.531,399.168,319.514,397.209,321.531z"/>
				<path style="fill:#F2726D;" d="M427.967,321.531l15.69,87.59h-1.727l-17.667-87.59
					C424.263,321.531,426.008,319.514,427.967,321.531z"/>
			</g>
		</g>
		<g>
			<g>
				
					<rect x="324.041" y="205.701" transform="matrix(0.1535 0.9882 -0.9882 0.1535 491.6842 -159.7116)" style="fill:#D0F2F2;" width="30.038" height="2.84"/>
				<polygon style="fill:#D0F2F2;" points="335.351,192.498 336.39,189.937 338.157,192.062 337.126,194.673 				"/>
			</g>
			
				<rect x="351.771" y="179.921" transform="matrix(0.9851 0.1722 -0.1722 0.9851 39.6591 -58.1952)" style="fill:#91BDBF;" width="7.139" height="39.253"/>
			<g>
				<rect x="343.347" y="188.562" style="fill:#D0F2F2;" width="3.144" height="23.329"/>
				<path style="fill:#91BDBF;" d="M345.058,181.107h-0.278c-1.002,0-1.814,0.812-1.814,1.814v16.951h3.905v-16.951
					C346.871,181.919,346.059,181.107,345.058,181.107z"/>
				<rect x="346.871" y="183.059" style="fill:#204E5F;" width="0.596" height="20.806"/>
			</g>
			<g>
				<path style="fill:#FF8984;" d="M361.023,208.55h-29.211c0,0-4.541,26.113,14.606,26.113
					C365.564,234.663,361.023,208.55,361.023,208.55z"/>
				<g>
					<defs>
						<path id="SVGID_1_" d="M361.023,208.55h-29.211c0,0-4.541,26.113,14.606,26.113
							C365.564,234.663,361.023,208.55,361.023,208.55z"/>
					</defs>
					<clipPath id="SVGID_00000134964717516166127910000018205654505661752483_">
						<use xlink:href="#SVGID_1_"  style="overflow:visible;"/>
					</clipPath>
					<path style="clip-path:url(#SVGID_00000134964717516166127910000018205654505661752483_);fill:#F2726D;" d="M361.023,208.55
						c0,0-6.909,19.039-26.313,20.305l-5.485,4.137l16.093,6.768l14.402-2.256l6.555-15.897
						C366.274,221.607,366.117,212.614,361.023,208.55z"/>
				</g>
			</g>
		</g>
		<g>
			<rect x="99.988" y="165.147" style="fill:#B7D7D8;" width="59.202" height="36.309"/>
			<rect x="104.668" y="168.017" style="fill:#D0F2F2;" width="49.842" height="30.568"/>
			<g>
				<path style="fill:#B7D7D8;" d="M197.523,195.639H77.121c0,0-5.447,6.56-5.447,19.059c0,12.498,5.447,19.059,5.447,19.059
					h120.402V195.639z"/>
				<g>
					<defs>
						<path id="SVGID_00000128452416041531951880000009507364067378654129_" d="M197.523,195.639H77.121
							c0,0-5.447,6.56-5.447,19.059c0,12.498,5.447,19.059,5.447,19.059h120.402V195.639z"/>
					</defs>
					<clipPath id="SVGID_00000056389265103022071540000003864110866196885173_">
						<use xlink:href="#SVGID_00000128452416041531951880000009507364067378654129_"  style="overflow:visible;"/>
					</clipPath>
					
						<rect x="69.567" y="214.697" style="clip-path:url(#SVGID_00000056389265103022071540000003864110866196885173_);fill:#66AEB0;" width="117.885" height="1.811"/>
				</g>
			</g>
		</g>
		<ellipse style="opacity:0.1;fill:#204E5F;" cx="208.551" cy="431.036" rx="77.742" ry="24.072"/>
		<g>
			<rect x="55.264" y="233.756" style="fill:#66AEB0;" width="310.52" height="9.823"/>
			<g>
				<g>
					<g>
						<rect x="62.226" y="243.579" style="fill:#D3E3E8;" width="69.264" height="42.94"/>
						<polygon style="fill:#B7D7D8;" points="131.49,243.579 62.226,286.519 131.49,286.519 						"/>
						<path style="fill:#66AEB0;" d="M91.476,265.049c0-2.973,2.41-5.382,5.382-5.382c2.972,0,5.382,2.41,5.382,5.382
							c0,2.972-2.41,5.382-5.382,5.382C93.885,270.431,91.476,268.022,91.476,265.049z"/>
					</g>
					<g>
						<rect x="62.226" y="286.519" style="fill:#66AEB0;" width="69.264" height="42.94"/>
						<polygon style="fill:#529496;" points="131.49,286.519 62.226,329.459 131.49,329.459 						"/>
						<path style="fill:#B7D7D8;" d="M91.476,307.989c0-2.972,2.41-5.382,5.382-5.382c2.972,0,5.382,2.41,5.382,5.382
							c0,2.972-2.41,5.382-5.382,5.382C93.885,313.371,91.476,310.961,91.476,307.989z"/>
					</g>
					<g>
						<rect x="62.226" y="329.459" style="fill:#D3E3E8;" width="69.264" height="42.94"/>
						<polygon style="fill:#B7D7D8;" points="131.49,329.459 62.226,372.399 131.49,372.399 						"/>
						<path style="fill:#66AEB0;" d="M91.476,350.929c0-2.972,2.41-5.382,5.382-5.382c2.972,0,5.382,2.41,5.382,5.382
							c0,2.973-2.41,5.382-5.382,5.382C93.885,356.311,91.476,353.901,91.476,350.929z"/>
					</g>
					<g>
						<rect x="62.226" y="372.399" style="fill:#66AEB0;" width="69.264" height="42.94"/>
						<polygon style="fill:#529496;" points="131.49,372.399 62.226,415.339 131.49,415.339 						"/>
						<path style="fill:#B7D7D8;" d="M91.476,393.869c0-2.972,2.41-5.382,5.382-5.382c2.972,0,5.382,2.41,5.382,5.382
							c0,2.972-2.41,5.382-5.382,5.382C93.885,399.251,91.476,396.841,91.476,393.869z"/>
					</g>
				</g>
				<rect x="354.143" y="238.668" style="fill:#66AEB0;" width="4.68" height="176.671"/>
			</g>
		</g>
		<g>
			<g>
				<g>
					<g>
						<polygon style="fill:#2F6263;" points="274.016,224.608 271.812,207.132 255.672,207.132 253.533,207.132 237.393,207.132 
							235.189,224.608 224.819,233.756 252.431,233.756 256.774,233.756 284.387,233.756 						"/>
						<g>
							<defs>
								<polygon id="SVGID_00000099642436872965802650000001491772803232767905_" points="274.016,224.608 271.812,207.132 
									255.672,207.132 253.533,207.132 237.393,207.132 235.189,224.608 224.819,233.756 252.431,233.756 256.774,233.756 
									284.387,233.756 								"/>
							</defs>
							<clipPath id="SVGID_00000047034125234746269200000002387295177367976631_">
								<use xlink:href="#SVGID_00000099642436872965802650000001491772803232767905_"  style="overflow:visible;"/>
							</clipPath>
							<path style="clip-path:url(#SVGID_00000047034125234746269200000002387295177367976631_);fill:#3D797A;" d="M224.819,233.756
								c0,0,20.58-1.639,32.377-9.732c0,0-7.13-0.821-14.519,1.056c0,0,19.964-6.334,26.705-22.519l5.963-1.877v23.927l15.816,11.26
								h-68.448L224.819,233.756z"/>
						</g>
					</g>
					<path style="fill:#2F6263;" d="M334.358,89.961h-159.51c-5.891,0-10.667,4.776-10.667,10.667v95.838
						c0,5.891,4.776,10.667,10.667,10.667h159.51c5.891,0,10.667-4.776,10.667-10.667v-95.837
						C345.024,94.737,340.249,89.961,334.358,89.961z"/>
					<path style="fill:#D3E3E8;" d="M345.024,184.146H164.181v13.321c0,5.338,4.327,9.665,9.665,9.665H335.36
						c5.338,0,9.665-4.327,9.665-9.665V184.146z"/>
					<rect x="174.228" y="98.057" style="fill:#529496;" width="160.75" height="77.879"/>
					<g>
						<defs>
							
								<rect id="SVGID_00000163786974998715121980000009950851971587554239_" x="174.228" y="98.057" width="160.75" height="77.879"/>
						</defs>
						<clipPath id="SVGID_00000154402701047424373730000011032775560751701893_">
							<use xlink:href="#SVGID_00000163786974998715121980000009950851971587554239_"  style="overflow:visible;"/>
						</clipPath>
					</g>
					<g>
						<defs>
							<path id="SVGID_00000051373356449916007870000004841312756019795886_" d="M345.024,184.146H164.181v13.321
								c0,5.338,4.327,9.665,9.665,9.665H335.36c5.338,0,9.665-4.327,9.665-9.665V184.146z"/>
						</defs>
						<clipPath id="SVGID_00000066507138374944834740000007745462920278565512_">
							<use xlink:href="#SVGID_00000051373356449916007870000004841312756019795886_"  style="overflow:visible;"/>
						</clipPath>
						<path style="clip-path:url(#SVGID_00000066507138374944834740000007745462920278565512_);fill:#B7D7D8;" d="M170.015,207.132
							c0,0,45.891-0.76,87.699-22.986h106.561v31.257H170.015V207.132z"/>
					</g>
				</g>
				<circle style="fill:#204E5F;" cx="254.603" cy="194.945" r="4.245"/>
			</g>
			<rect x="190.823" y="108.291" style="fill:#FFFFFF;" width="118.873" height="59.202"/>
			<rect x="316.17" y="147.252" style="fill:#66AEB0;" width="15.327" height="20.241"/>
			<rect x="316.326" y="128.337" style="fill:#66AEB0;" width="15.327" height="15.015"/>
			<rect x="316.014" y="108.291" style="fill:#66AEB0;" width="15.327" height="15.015"/>
			<g>
				<g>
					<rect x="176.91" y="108.291" style="fill:#66AEB0;" width="4.537" height="4.537"/>
					<rect x="182.761" y="108.291" style="fill:#66AEB0;" width="4.537" height="4.537"/>
					<rect x="176.91" y="113.744" style="fill:#66AEB0;" width="4.537" height="4.537"/>
					<rect x="182.761" y="113.754" style="fill:#66AEB0;" width="4.537" height="4.537"/>
					<rect x="176.91" y="119.206" style="fill:#66AEB0;" width="4.537" height="4.537"/>
					<rect x="182.761" y="119.206" style="fill:#66AEB0;" width="4.537" height="4.537"/>
					<rect x="176.91" y="124.669" style="fill:#66AEB0;" width="4.537" height="4.537"/>
					<rect x="182.761" y="124.669" style="fill:#66AEB0;" width="4.537" height="4.537"/>
					<rect x="176.91" y="130.112" style="fill:#66AEB0;" width="4.537" height="4.537"/>
					<rect x="182.761" y="130.112" style="fill:#66AEB0;" width="4.537" height="4.537"/>
					<rect x="176.91" y="135.574" style="fill:#66AEB0;" width="4.537" height="4.537"/>
					<rect x="182.761" y="135.574" style="fill:#66AEB0;" width="4.537" height="4.537"/>
					<rect x="176.91" y="141.037" style="fill:#66AEB0;" width="4.537" height="4.537"/>
					<rect x="182.761" y="141.037" style="fill:#66AEB0;" width="4.537" height="4.537"/>
					<rect x="176.91" y="146.5" style="fill:#66AEB0;" width="4.537" height="4.537"/>
					<rect x="182.761" y="146.5" style="fill:#66AEB0;" width="4.537" height="4.537"/>
					<rect x="176.91" y="151.962" style="fill:#66AEB0;" width="4.537" height="4.537"/>
					<rect x="182.761" y="151.962" style="fill:#66AEB0;" width="4.537" height="4.537"/>
					<rect x="176.91" y="157.415" style="fill:#66AEB0;" width="4.537" height="4.537"/>
					<rect x="182.761" y="157.425" style="fill:#66AEB0;" width="4.537" height="4.537"/>
					<rect x="176.91" y="162.878" style="fill:#66AEB0;" width="4.537" height="4.537"/>
					<rect x="182.761" y="162.878" style="fill:#66AEB0;" width="4.537" height="4.537"/>
				</g>
			</g>
			<rect x="176.91" y="100.725" style="fill:#66AEB0;" width="154.431" height="4.836"/>
			<rect x="176.91" y="169.989" style="fill:#66AEB0;" width="154.431" height="3.744"/>
			<g style="opacity:0.3;">
				<rect x="231.591" y="121.021" style="fill:#3C7A91;" width="27.257" height="27.257"/>
				<circle style="fill:#B7D7D8;" cx="263.623" cy="131.481" r="15.682"/>
				<polygon style="fill:#9BDEE0;" points="240.799,156.356 255.905,126.863 271.011,156.356 				"/>
			</g>
		</g>
		<g>
			<path style="fill:#FFC6A8;" d="M270.263,216.432c17.628,14.04,44.772,9.516,44.772,9.516c16.72-17.349,26.052-0.156,26.052-0.156
				c-16.692-5.148-20.436,7.332-20.436,7.332c-30.732,21.372-54.912,6.24-54.912,6.24l-7.956-22.932H270.263z"/>
			<g>
				<path style="fill:#FFC6A8;" d="M237.843,119.327c0,0,7.49,13.176,4.981,25.316c0,0-5.069-2.468-6.762,4.876
					c-1.693,7.344,2.447,8.684,2.447,8.684s-10.996,21.053-27.779,17.456c0,0,5.737,2.289,4.258,8.536l11.09,3.119
					c0,0,2.637-8.62,8.617-13.404c5.98-4.784,10.412-7.857,12.376-15.324c0,0,3.316-1.326,4.3-4.237c0,0-4.35-3.837-3.153-14.596
					C249.414,128.992,242.364,121.018,237.843,119.327z"/>
				<g>
					<path style="fill:#204E5F;" d="M242.824,144.642c0,0,3.779-9.74-4.006-23.966c0,0-2.996-18.34-19.043-8.909
						c0,0-23.158-5.19-28.796,18.951c-4.756,20.37,2.572,35.437,13.418,42.113c2.008,1.236,4.137,2.184,6.332,2.826
						c14.049,4.104,25.581-11.808,27.779-17.456c0,0-3.687-1.824-2.447-8.684C237.083,143.871,240.984,143.804,242.824,144.642z"/>
					<path style="fill:#204E5F;" d="M204.306,172.643c0.13,0.777,3.089,0.666,3.323,3.683c0,0,0.745-0.962,1.659-1.137
						c0,0,0.622,1.673,2.787,2.574c0,0-0.395-1.453,1.177-1.575c0,0,0.78,1.809,3.37,1.868c0,0-1.495-1.255,0.489-1.827
						c0,0,2.101,0.189,1.516,1.417c0,0,2.105-0.476,2.427-2.314c0,0,1.375-0.143,0.848,1.261c0,0,1.023-0.068,3.056-3.076
						c0,0,2.033-1.37,1.565,0.444c0,0,1.642-1.076,1.757-2.732l-8.719-4.288l-12.695,3.978
						C206.868,170.918,204.176,171.866,204.306,172.643z"/>
				</g>
				<path style="fill:#E35550;" d="M260.232,137.892h-17.105c0,0-6.784-15.866,0-9.08c6.784,6.786,19.502,4.492,19.502,6.023l0,0
					C262.629,136.523,261.556,137.892,260.232,137.892z"/>
			</g>
			<path style="fill:#F2726D;" d="M189.503,137.892h59.34c0,0,4.884-32.331-27.408-32.331
				C189.142,105.561,189.503,134.704,189.503,137.892z"/>
			<path style="fill:#D0F2F2;" d="M269.139,254.808l1.845-39.405c0,0-16.173-6.846-30.872-20.459
				c-14.699-13.613-24.995-11.039-31.196-11.273c-6.201-0.234-22.815,3.861-39.546,34.515l-7.06,68.332
				c0,0,54.063,8.42,78.824-8.252c0,0-12.327-31.415-8.115-49.082C233.018,229.185,249.216,251.649,269.139,254.808z"/>
			<path style="fill:#2F6263;" d="M320.651,233.756c0,0,2.223-9.837,13.572-9.837c11.349,0,12.285,9.837,12.285,9.837H320.651z"/>
			<g>
				<path style="fill:#529496;" d="M246.037,329.121c0,0-18.096,16.38-19.812,40.248c-1.716,23.868-0.624,25.584-2.184,34.32
					l5.304,2.808l4.68-9.126c0,0,9.36-23.946,26.988-48.906c17.628-24.96,9.048-45.708-5.616-41.652
					C255.397,306.813,250.561,326.469,246.037,329.121z"/>
				<g>
					<path style="fill:#FFC6A8;" d="M244.633,426.466c0,0,5.207-1.131,3.686-4.816c-1.521-3.686-3.861-6.143-11.817-4.329
						l-4.212,2.983l6.669,4.739L244.633,426.466z"/>
					<path style="fill:#F2726D;" d="M229.656,396.67c-11.076,0-8.58,17.004-8.58,24.648c0,7.644,14.04,7.644,23.556,5.148
						c0,0-7.644-7.251-7.644-14.155C236.989,405.406,236.052,396.67,229.656,396.67z"/>
					<path style="fill:#FFC6A8;" d="M241.549,422.971c0,0-4.716,1.155-6.978-2.043c-2.262-3.198-2.418-17.706-8.814-17.628
						c-6.396,0.078-4.704,10.617-4.731,15.683c-0.027,5.066,0.129,7.175,6.993,8.5c6.864,1.324,14.273-0.035,16.614-1.016
						C244.633,426.466,242.267,423.937,241.549,422.971z"/>
				</g>
			</g>
			<g>
				<path style="fill:#529496;" d="M227.866,330.036l-32.292,14.976c0,0-8.658,8.424-8.19,32.526
					c0.078,4.022-0.593,8.216-1.768,12.418l2.47,5.133l4.095-3.627l35.685-53.703V330.036z"/>
				<g>
					<path style="fill:#FFC6A8;" d="M202.778,419.502c0,0,5.207-1.131,3.686-4.816c-1.521-3.686-3.861-6.143-11.817-4.329
						l-4.212,2.984l6.669,4.738L202.778,419.502z"/>
					<path style="fill:#F2726D;" d="M187.801,389.706c-11.076,0-8.58,17.004-8.58,24.648c0,7.644,14.04,7.644,23.556,5.148
						c0,0-7.644-7.251-7.644-14.155C195.134,398.442,194.198,389.706,187.801,389.706z"/>
					<path style="fill:#FFC6A8;" d="M199.694,416.008c0,0-4.716,1.155-6.978-2.043c-2.262-3.198-2.418-17.706-8.814-17.628
						c-6.396,0.078-4.704,10.617-4.731,15.683c-0.027,5.066,0.129,7.175,6.993,8.5c6.864,1.324,14.273-0.035,16.614-1.016
						C202.778,419.502,200.412,416.973,199.694,416.008z"/>
				</g>
			</g>
			<g>
				<g>
					<g>
						<path style="fill:#204E5F;" d="M202.372,342.484l4.462,108.655h3.014V342.484
							C209.848,342.484,207.492,342.152,202.372,342.484z"/>
						<path style="fill:#204E5F;" d="M174.741,338.995l-36.428,92.041l3.283-1.329l38.129-88.469
							C179.725,341.238,178.742,336.783,174.741,338.995z"/>
						<path style="fill:#204E5F;" d="M238.102,336.752l35.744,94.284l3.184-1.08l-34.006-96.942
							C243.024,333.014,240.683,333.014,238.102,336.752z"/>
						
							<rect x="188.473" y="349.33" transform="matrix(0.8908 -0.4544 0.4544 0.8908 -155.2395 128.1369)" style="fill:#204E5F;" width="0.997" height="75.434"/>
						
							<rect x="138.832" y="379.748" transform="matrix(0.7168 -0.6973 0.6973 0.7168 -214.9106 231.3841)" style="fill:#204E5F;" width="77.091" height="0.997"/>
						
							<rect x="236.438" y="342.834" transform="matrix(0.6642 -0.7476 0.7476 0.6642 -204.7795 304.8622)" style="fill:#204E5F;" width="0.997" height="75.053"/>
						<path style="fill:#204E5F;" d="M209.334,421.068l-0.903-0.422l15.353-32.858l-19.714-7.364l41.509-36.928l-20.435,43.737
							l39.071,14.594l-0.348,0.935l-39.146-14.624L209.334,421.068z M205.968,380.07l18.239,6.812l18.422-39.428L205.968,380.07z"/>
						<polygon style="fill:#204E5F;" points="152.747,401.842 152.375,400.917 204.088,380.084 173.329,352.658 173.993,351.914 
							205.949,380.409 						"/>
						<g>
							<path style="fill:#FF8984;" d="M233.554,277.358c-14.805-2.458,16.709-69.578-41.529-69.578s-60.564,84.531-46.608,113.439
								c13.956,28.908,81.315,36.218,113.426,4.652C290.955,294.304,255.567,281.013,233.554,277.358z"/>
						</g>
					</g>
				</g>
				<g>
					<defs>
						<path id="SVGID_00000062908984269164995260000013777866649327033790_" d="M233.554,277.358
							c-14.805-2.458,16.709-69.578-41.529-69.578s-60.564,84.531-46.608,113.439c13.956,28.908,81.315,36.218,113.426,4.652
							C290.955,294.304,255.567,281.013,233.554,277.358z"/>
					</defs>
					<clipPath id="SVGID_00000001632413864704536290000008394119062154345865_">
						<use xlink:href="#SVGID_00000062908984269164995260000013777866649327033790_"  style="overflow:visible;"/>
					</clipPath>
					<path style="clip-path:url(#SVGID_00000001632413864704536290000008394119062154345865_);fill:#F2726D;" d="M270.956,298.199
						c0,0-20.707-14.528-45.045-13.199c-24.339,1.329,6.259-58.451-14.855-74.249c-21.114-15.798-53.739-24.782-78.629,25.564
						c-24.889,50.346-63.101,92.25-22.231,106.021c40.87,13.771,54.837,40.756,104.341,18.79
						c49.503-21.965,63.366-11.333,64.243-38.247C279.657,295.965,270.956,298.199,270.956,298.199z"/>
				</g>
			</g>
		</g>
		<g style="opacity:0.3;">
			<g>
				
					<rect x="124.509" y="52.247" transform="matrix(0.9971 -0.0755 0.0755 0.9971 -4.7419 10.5971)" style="fill:#D0F2F2;" width="26.676" height="31.59"/>
				<g>
					
						<rect x="127.69" y="54.438" transform="matrix(0.9971 -0.0755 0.0755 0.9971 -4.5688 10.5763)" style="fill:#3C7A91;" width="19.968" height="22.62"/>
					<path style="fill:#66AEB0;" d="M146.776,53.716c0,0-4.338,15.034-18.204,24.063l19.911-1.507L146.776,53.716z"/>
				</g>
			</g>
			<path style="fill:#F2726D;" d="M136.087,44.786L136.087,44.786c-1.138,0.086-1.991,1.079-1.905,2.217l0.388,5.134
				c0.086,1.139,1.079,1.991,2.217,1.905l0,0c1.138-0.086,1.991-1.079,1.905-2.217l-0.389-5.134
				C138.218,45.553,137.226,44.7,136.087,44.786z"/>
		</g>
		<g style="opacity:0.3;">
			<g>
				
					<rect x="75.954" y="50.916" transform="matrix(0.9939 0.1103 -0.1103 0.9939 7.9028 -9.4416)" style="fill:#D0F2F2;" width="26.676" height="31.59"/>
				<g>
					
						<rect x="79.562" y="53.114" transform="matrix(0.9939 0.1103 -0.1103 0.9939 7.652 -9.4835)" style="fill:#3C7A91;" width="19.968" height="22.62"/>
					<path style="fill:#66AEB0;" d="M100.716,54.284c0,0-7.044,13.972-22.341,20.28l19.846,2.202L100.716,54.284z"/>
				</g>
			</g>
			<path style="fill:#F2726D;" d="M91.864,43.531L91.864,43.531c-1.135-0.126-2.156,0.692-2.282,1.826l-0.568,5.117
				c-0.126,1.135,0.692,2.156,1.826,2.282l0,0c1.135,0.126,2.156-0.692,2.282-1.826l0.568-5.117
				C93.817,44.678,92.999,43.657,91.864,43.531z"/>
		</g>
		<ellipse style="opacity:0.1;fill:#204E5F;" cx="412.588" cy="409.121" rx="38.25" ry="9.197"/>
	</g>
</g>
<g id="DESIGNED_BY_FREEPIK">
	<g>
		<g id="XMLID_164_">
			<g id="XMLID_210_">
				<path id="XMLID_218_" style="fill:#A5B7C6;" d="M260.104,466.617c-0.432,0.443-0.803,0.931-1.108,1.453l-0.465-0.241
					c-0.067-0.298-0.349-0.503-0.659-0.466c-0.331,0.039-0.568,0.339-0.529,0.67c0.039,0.331,0.339,0.568,0.67,0.529
					c0.066-0.008,0.127-0.026,0.184-0.052l0.451,0.234c-0.251,0.554-0.433,1.139-0.539,1.744l0.746,0.132
					c0.23-1.306,0.85-2.507,1.792-3.473L260.104,466.617z"/>
				<path id="XMLID_217_" style="fill:#A5B7C6;" d="M265.592,464.315c-0.171,0-0.341,0.006-0.51,0.017l-0.074-0.626
					c0.188-0.149,0.296-0.389,0.266-0.644c-0.046-0.393-0.402-0.674-0.795-0.628c-0.393,0.046-0.674,0.402-0.628,0.795
					c0.03,0.254,0.189,0.461,0.404,0.564l0.074,0.624c-0.714,0.116-1.403,0.332-2.06,0.646l0.327,0.684
					c0.934-0.447,1.942-0.673,2.995-0.673c0.496,0,0.993,0.053,1.475,0.158l0.161-0.741
					C266.692,464.374,266.142,464.315,265.592,464.315z"/>
				<path id="XMLID_216_" style="fill:#A5B7C6;" d="M272.194,466.862c0.331-0.04,0.566-0.341,0.525-0.672
					c-0.04-0.331-0.341-0.566-0.672-0.526c-0.309,0.038-0.535,0.304-0.53,0.609l-0.416,0.363c-0.418-0.43-0.889-0.813-1.408-1.139
					l-0.404,0.641c1.134,0.715,2.021,1.726,2.563,2.925l0.69-0.313c-0.251-0.554-0.568-1.072-0.942-1.545l0.402-0.351
					C272.065,466.867,272.129,466.871,272.194,466.862z"/>
				<path id="XMLID_215_" style="fill:#A5B7C6;" d="M265.044,474.524c-0.386,0.023-0.775,0.035-1.157,0.035
					c-0.88,0-1.733-0.061-2.478-0.179c-0.39-0.062-0.846-0.155-1.27-0.292c1.046,1.861,3.069,3.125,5.388,3.125
					c2.856,0,5.262-1.916,5.95-4.504c-0.682,0.449-1.505,0.825-2.459,1.123C267.839,474.199,266.463,474.438,265.044,474.524z"/>
				<path id="XMLID_211_" style="fill:#A5B7C6;" d="M265.592,465.831c-3.352,0-6.08,2.666-6.08,5.944
					c0,0.426,0.046,0.849,0.137,1.261c0.673,0.483,2.706,0.89,5.347,0.731c2.879-0.173,5.297-0.957,6.672-2.159
					c-0.006-0.195-0.021-0.39-0.045-0.582C271.244,468.065,268.65,465.831,265.592,465.831z M263.432,472.346
					c-1.02,0-1.85-0.83-1.85-1.85c0-1.02,0.83-1.85,1.85-1.85c1.02,0,1.85,0.83,1.85,1.85
					C265.282,471.517,264.452,472.346,263.432,472.346z M268.17,471.438c-0.75,0-1.36-0.61-1.36-1.36c0-0.75,0.61-1.361,1.36-1.361
					c0.75,0,1.361,0.61,1.361,1.361C269.53,470.828,268.92,471.438,268.17,471.438z"/>
			</g>
			<path id="XMLID_199_" style="fill:#A5B7C6;" d="M281.595,467.699c-0.295-0.116-0.806-0.309-1.382-0.237
				c-0.551,0.068-0.844,0.34-0.844,1.007v0.866h2.228v1.717h-2.228v5.455h-1.932v-5.455h-1.34v-1.717h1.34v-0.888
				c0-1.68,0.895-2.783,2.568-2.783c0.642,0,1.157,0.122,1.59,0.308L281.595,467.699z"/>
			<path id="XMLID_197_" style="fill:#A5B7C6;" d="M286.298,471.031c-0.177-0.03-0.358-0.046-0.526-0.046
				c-0.896,0-1.51,0.548-1.51,1.613v3.908h-1.932v-7.172h1.873v0.785c0.451-0.674,1.14-0.977,2.021-0.977
				c0.414,0,0.848,0.128,1.094,0.337L286.298,471.031z"/>
			<path id="XMLID_194_" style="fill:#A5B7C6;" d="M293.965,472.909c0,0.222-0.015,0.489-0.037,0.651h-5.085
				c0.207,1.036,0.933,1.488,1.843,1.488c0.622,0,1.295-0.252,1.813-0.688l1.133,1.243c-0.814,0.748-1.85,1.088-3.057,1.088
				c-2.198,0-3.723-1.495-3.723-3.753c0-2.257,1.48-3.797,3.627-3.797C292.544,469.141,293.958,470.673,293.965,472.909z
				 M288.851,472.243h3.175c-0.178-0.918-0.733-1.436-1.562-1.436C289.554,470.807,289.021,471.354,288.851,472.243z"/>
			<path id="XMLID_182_" style="fill:#A5B7C6;" d="M301.618,472.909c0,0.222-0.015,0.489-0.037,0.651h-5.085
				c0.207,1.036,0.932,1.488,1.843,1.488c0.622,0,1.295-0.252,1.814-0.688l1.132,1.243c-0.814,0.748-1.85,1.088-3.057,1.088
				c-2.198,0-3.723-1.495-3.723-3.753c0-2.257,1.48-3.797,3.627-3.797C300.197,469.141,301.611,470.673,301.618,472.909z
				 M296.504,472.243h3.175c-0.178-0.918-0.733-1.436-1.562-1.436C297.207,470.807,296.674,471.354,296.504,472.243z"/>
			<path id="XMLID_179_" style="fill:#A5B7C6;" d="M309.964,472.916c0,2.154-1.495,3.775-3.471,3.775
				c-0.962,0-1.643-0.378-2.109-0.933v3.708h-1.924v-10.133h1.887v0.792c0.466-0.585,1.155-0.984,2.139-0.984
				C308.469,469.141,309.964,470.762,309.964,472.916z M304.287,472.916c0,1.132,0.747,1.976,1.843,1.976
				c1.14,0,1.85-0.881,1.85-1.976c0-1.095-0.711-1.976-1.85-1.976C305.035,470.94,304.287,471.784,304.287,472.916z"/>
			<path id="XMLID_176_" style="fill:#A5B7C6;" d="M313.067,466.988c0,0.696-0.54,1.229-1.236,1.229
				c-0.696,0-1.229-0.533-1.229-1.229c0-0.696,0.533-1.243,1.229-1.243C312.527,465.744,313.067,466.292,313.067,466.988z
				 M312.808,476.506h-1.932v-7.172h1.932V476.506z"/>
			<path id="XMLID_174_" style="fill:#A5B7C6;" d="M316.032,471.887l2.702-2.554h2.368l-3.479,3.375l3.501,3.797h-2.376
				l-2.716-2.901v2.901H314.1v-10.658h1.932V471.887z"/>
		</g>
		<g>
			<path style="fill:#A5B7C6;" d="M184.412,476.441v-1.055c-0.527,0.718-1.391,1.23-2.387,1.23c-1.846,0-3.149-1.406-3.149-3.706
				c0-2.256,1.289-3.721,3.149-3.721c0.952,0,1.816,0.469,2.387,1.245v-3.765h1.099v9.77H184.412z M184.412,474.522v-3.208
				c-0.395-0.615-1.245-1.143-2.124-1.143c-1.421,0-2.27,1.172-2.27,2.739c0,1.567,0.85,2.724,2.27,2.724
				C183.168,475.635,184.017,475.137,184.412,474.522z"/>
			<path style="fill:#A5B7C6;" d="M186.932,472.896c0-2.051,1.465-3.706,3.486-3.706c2.139,0,3.398,1.67,3.398,3.794v0.279h-5.727
				c0.088,1.333,1.025,2.446,2.549,2.446c0.805,0,1.626-0.322,2.182-0.893l0.527,0.718c-0.703,0.703-1.655,1.084-2.812,1.084
				C188.44,476.617,186.932,475.108,186.932,472.896z M190.403,470.099c-1.509,0-2.256,1.274-2.314,2.358h4.643
				C192.718,471.402,192.015,470.099,190.403,470.099z"/>
			<path style="fill:#A5B7C6;" d="M194.607,475.503l0.571-0.791c0.469,0.542,1.362,1.011,2.329,1.011c1.084,0,1.67-0.513,1.67-1.216
				c0-1.714-4.38-0.659-4.38-3.281c0-1.098,0.952-2.036,2.636-2.036c1.201,0,2.051,0.454,2.622,1.026l-0.513,0.762
				c-0.424-0.513-1.201-0.894-2.109-0.894c-0.967,0-1.567,0.483-1.567,1.113c0,1.553,4.38,0.527,4.38,3.281
				c0,1.187-0.952,2.139-2.783,2.139C196.306,476.617,195.325,476.265,194.607,475.503z"/>
			<path style="fill:#A5B7C6;" d="M201.477,467.623c0-0.41,0.337-0.747,0.732-0.747c0.41,0,0.747,0.337,0.747,0.747
				c0,0.41-0.337,0.732-0.747,0.732C201.814,468.355,201.477,468.033,201.477,467.623z M201.667,476.441v-7.075h1.099v7.075H201.667
				z"/>
			<path style="fill:#A5B7C6;" d="M204.582,478.257l0.556-0.82c0.586,0.703,1.289,0.967,2.3,0.967c1.172,0,2.27-0.571,2.27-2.124
				v-1.011c-0.513,0.718-1.377,1.26-2.373,1.26c-1.845,0-3.149-1.377-3.149-3.662c0-2.27,1.289-3.677,3.149-3.677
				c0.952,0,1.802,0.469,2.373,1.245v-1.069h1.098v6.87c0,2.344-1.641,3.076-3.369,3.076
				C206.237,479.312,205.417,479.077,204.582,478.257z M209.709,474.405v-3.091c-0.381-0.615-1.23-1.143-2.109-1.143
				c-1.421,0-2.27,1.128-2.27,2.695c0,1.553,0.849,2.695,2.27,2.695C208.478,475.562,209.328,475.02,209.709,474.405z"/>
			<path style="fill:#A5B7C6;" d="M217.413,476.441v-4.629c0-1.245-0.63-1.641-1.582-1.641c-0.865,0-1.685,0.527-2.095,1.099v5.17
				h-1.099v-7.075h1.099v1.025c0.498-0.586,1.464-1.201,2.519-1.201c1.48,0,2.256,0.747,2.256,2.285v4.966H217.413z"/>
			<path style="fill:#A5B7C6;" d="M219.932,472.896c0-2.051,1.465-3.706,3.486-3.706c2.139,0,3.398,1.67,3.398,3.794v0.279h-5.727
				c0.088,1.333,1.025,2.446,2.549,2.446c0.806,0,1.626-0.322,2.183-0.893l0.527,0.718c-0.703,0.703-1.655,1.084-2.812,1.084
				C221.441,476.617,219.932,475.108,219.932,472.896z M223.404,470.099c-1.509,0-2.256,1.274-2.314,2.358h4.643
				C225.718,471.402,225.015,470.099,223.404,470.099z"/>
			<path style="fill:#A5B7C6;" d="M233.35,476.441v-1.055c-0.527,0.718-1.392,1.23-2.388,1.23c-1.846,0-3.149-1.406-3.149-3.706
				c0-2.256,1.289-3.721,3.149-3.721c0.952,0,1.817,0.469,2.388,1.245v-3.765h1.098v9.77H233.35z M233.35,474.522v-3.208
				c-0.396-0.615-1.245-1.143-2.124-1.143c-1.421,0-2.27,1.172-2.27,2.739c0,1.567,0.849,2.724,2.27,2.724
				C232.105,475.635,232.954,475.137,233.35,474.522z"/>
			<path style="fill:#A5B7C6;" d="M239.692,476.441v-9.77h1.098v3.765c0.572-0.776,1.421-1.245,2.388-1.245
				c1.845,0,3.149,1.465,3.149,3.721c0,2.299-1.304,3.706-3.149,3.706c-0.996,0-1.86-0.513-2.388-1.23v1.055H239.692z
				 M242.9,475.635c1.436,0,2.285-1.157,2.285-2.724c0-1.567-0.85-2.739-2.285-2.739c-0.864,0-1.728,0.527-2.109,1.143v3.208
				C241.171,475.137,242.036,475.635,242.9,475.635z"/>
			<path style="fill:#A5B7C6;" d="M247.528,478.213c0.161,0.073,0.425,0.117,0.601,0.117c0.483,0,0.805-0.161,1.055-0.747
				l0.469-1.069l-2.959-7.148h1.187l2.358,5.801l2.344-5.801h1.201l-3.545,8.51c-0.425,1.025-1.143,1.421-2.08,1.435
				c-0.234,0-0.601-0.044-0.805-0.103L247.528,478.213z"/>
		</g>
	</g>
</g>
</svg>
